<svg width="100.000000" height="80.062256" viewBox="0 0 100 80.0623" fill="none" xmlns="http://www.w3.org/2000/svg" xmlns:xlink="http://www.w3.org/1999/xlink">
	<desc>
			Created with Pixso.
	</desc>
	<defs/>
	<path id="path" d="M35.65 2.05C32.15 7.32 31.08 9.01 31.16 9.12C31.21 9.18 32.25 9.04 33.43 8.83C36.51 8.26 43.82 8.32 46.9 8.95C53.48 10.27 60.86 13.93 65.72 18.25L66.87 19.28L67.76 18.16C68.23 17.56 68.62 16.87 68.62 16.67C68.62 15.93 62.27 9.29 59.87 7.52C53.58 2.88 45.59 0 39.01 0L37.03 0L35.65 2.05Z" fill="#1C85C5" fill-opacity="1.000000" fill-rule="nonzero"/>
	<path id="path" d="M31.16 9.12C31.21 9.18 32.25 9.04 33.43 8.83C36.51 8.26 43.82 8.32 46.9 8.95C53.48 10.27 60.86 13.93 65.72 18.25L66.87 19.28L67.76 18.16C68.23 17.56 68.62 16.87 68.62 16.67C68.62 15.93 62.27 9.29 59.87 7.52C53.58 2.88 45.59 0 39.01 0L37.03 0L35.65 2.05C32.15 7.32 31.08 9.01 31.16 9.12Z" stroke="#000000" stroke-opacity="0" stroke-width="0.133333"/>
	<path id="path" d="M35.07 12.04C32.25 12.44 28.1 13.61 25.39 14.79C24.03 15.39 22.93 15.93 22.93 16.02C22.93 16.1 23.53 16.53 24.24 16.96C26.8 18.53 31.18 22.82 32.67 25.14L33.09 25.83L35.36 23.57C36.61 22.34 38.78 20.19 40.14 18.82C42.2 16.76 42.67 16.42 42.83 16.82C43.06 17.42 48.25 40.19 48.25 40.62C48.25 40.85 46.82 40.88 43.32 40.73L38.41 40.53L38.26 44.94C38.15 49 37.84 51.03 36.87 54.41C36.79 54.69 36.87 54.92 37.03 54.92C37.63 54.92 44.91 51.63 49.09 49.46C51.86 48 54.15 47 55.36 46.74C58.91 45.91 62.82 46.63 66.16 48.77C67.91 49.89 70.44 52.81 71.41 54.81C72.69 57.5 72.72 57.64 71.51 58.01C69.74 58.61 67.42 60.53 66.32 62.36C64.78 64.85 64.34 67.05 64.49 71.14C64.65 74.86 65.56 79.75 66.16 80.01C66.87 80.3 70.63 79.18 72.95 77.95C77.6 75.49 79.82 71.69 80.26 65.31L80.44 62.96L81.98 64.68C83.81 66.65 86.45 68.17 89.29 68.85C91.35 69.34 99.55 69.48 99.94 69.03C100.31 68.63 98.69 63.22 97.2 59.87C94.59 53.98 91.43 51.23 87.05 50.97C85.04 50.86 83.6 51.12 80.21 52.2C79.68 52.38 79.63 52.26 79.48 50.57C79.11 46.83 77.34 40.56 75.59 36.76C69.43 23.34 57.37 13.78 44.34 12.04C41.78 11.67 37.68 11.7 35.07 12.04Z" fill="#1C85C5" fill-opacity="1.000000" fill-rule="nonzero"/>
	<path id="path" d="M25.39 14.79C24.03 15.39 22.93 15.93 22.93 16.02C22.93 16.1 23.53 16.53 24.24 16.96C26.8 18.53 31.18 22.82 32.67 25.14L33.09 25.83L35.36 23.57C36.61 22.34 38.78 20.19 40.14 18.82C42.2 16.76 42.67 16.42 42.83 16.82C43.06 17.42 48.25 40.19 48.25 40.62C48.25 40.85 46.82 40.88 43.32 40.73L38.41 40.53L38.26 44.94C38.15 49 37.84 51.03 36.87 54.41C36.79 54.69 36.87 54.92 37.03 54.92C37.63 54.92 44.91 51.63 49.09 49.46C51.86 48 54.15 47 55.36 46.74C58.91 45.91 62.82 46.63 66.16 48.77C67.91 49.89 70.44 52.81 71.41 54.81C72.69 57.5 72.72 57.64 71.51 58.01C69.74 58.61 67.42 60.53 66.32 62.36C64.78 64.85 64.34 67.05 64.49 71.14C64.65 74.86 65.56 79.75 66.16 80.01C66.87 80.3 70.63 79.18 72.95 77.95C77.6 75.49 79.82 71.69 80.26 65.31L80.44 62.96L81.98 64.68C83.81 66.65 86.45 68.17 89.29 68.85C91.35 69.34 99.55 69.48 99.94 69.03C100.31 68.63 98.69 63.22 97.2 59.87C94.59 53.98 91.43 51.23 87.05 50.97C85.04 50.86 83.6 51.12 80.21 52.2C79.68 52.38 79.63 52.26 79.48 50.57C79.11 46.83 77.34 40.56 75.59 36.76C69.43 23.34 57.37 13.78 44.34 12.04C41.78 11.67 37.68 11.7 35.07 12.04C32.25 12.44 28.1 13.61 25.39 14.79Z" stroke="#000000" stroke-opacity="0" stroke-width="0.133333"/>
	<path id="path" d="M17.03 19.71C8.76 26.11 2.91 35.84 0.87 46.57C0.4 49.09 -0.17 55.29 0.04 55.87C0.2 56.35 4.53 57.93 7.35 58.5C11.34 59.33 15.39 59.59 19.36 59.21C22.99 58.9 27.63 58.01 31.03 57.01L32.72 56.5L33.45 54.55C34.84 50.89 35.28 47.89 35.12 43.05C34.99 38.62 34.65 36.87 33.38 33.47C31.68 29 28.23 24.2 24.89 21.57C22.93 20.05 19.96 18.3 19.3 18.3C19.04 18.3 18.03 18.93 17.03 19.71ZM16.46 35.1C17.19 35.81 17.03 36.96 16.12 37.99C15.21 39.02 14.48 39.13 13.74 38.42C13.04 37.73 13.17 36.61 14.08 35.53C14.95 34.53 15.73 34.35 16.46 35.1Z" fill="#1C85C5" fill-opacity="1.000000" fill-rule="nonzero"/>
	<path id="path" d="M0.87 46.57C0.4 49.09 -0.17 55.29 0.04 55.87C0.2 56.35 4.53 57.93 7.35 58.5C11.34 59.33 15.39 59.59 19.36 59.21C22.99 58.9 27.63 58.01 31.03 57.01L32.72 56.5L33.45 54.55C34.84 50.89 35.28 47.89 35.12 43.05C34.99 38.62 34.65 36.87 33.38 33.47C31.68 29 28.23 24.2 24.89 21.57C22.93 20.05 19.96 18.3 19.3 18.3C19.04 18.3 18.03 18.93 17.03 19.71C8.76 26.11 2.91 35.84 0.87 46.57ZM16.12 37.99C15.21 39.02 14.48 39.13 13.74 38.42C13.04 37.73 13.17 36.61 14.08 35.53C14.95 34.53 15.73 34.35 16.46 35.1C17.19 35.81 17.03 36.96 16.12 37.99Z" stroke="#000000" stroke-opacity="0" stroke-width="0.133333"/>
	<path id="path" d="M39.77 23.68C39.2 24.25 37.87 25.6 36.79 26.66L34.84 28.55L35.59 30.38C36.01 31.35 36.66 33.27 37.06 34.61L37.76 37.04L40.92 37.3C42.67 37.44 44.16 37.47 44.26 37.39C44.42 37.19 41.15 22.6 40.95 22.6C40.87 22.6 40.35 23.08 39.77 23.68Z" fill="#1C85C5" fill-opacity="1.000000" fill-rule="nonzero"/>
	<path id="path" d="M36.79 26.66L34.84 28.55L35.59 30.38C36.01 31.35 36.66 33.27 37.06 34.61L37.76 37.04L40.92 37.3C42.67 37.44 44.16 37.47 44.26 37.39C44.42 37.19 41.15 22.6 40.95 22.6C40.87 22.6 40.35 23.08 39.77 23.68C39.2 24.25 37.87 25.6 36.79 26.66Z" stroke="#000000" stroke-opacity="0" stroke-width="0.133333"/>
</svg>
