<svg width="90.000000" height="72.398315" viewBox="0 0 90 72.3983" fill="none" xmlns="http://www.w3.org/2000/svg" xmlns:xlink="http://www.w3.org/1999/xlink">
	<desc>
			Created with Pixso.
	</desc>
	<defs/>
	<path id="path" d="M7.4 0.18C6.02 0.6 4.56 1.81 3.36 3.55C2.04 5.47 0.84 8.89 0.28 12.35C-0.06 14.51 -0.1 19.15 0.2 21.11C0.64 23.99 1.76 26.59 3.2 28.15C3.98 28.99 5.74 29.99 6.46 29.99C6.9 29.99 6.9 29.21 6.32 51.79L5.84 69.69L6.28 70.49C7.48 72.71 9.82 72.73 11.2 70.49C11.56 69.91 11.56 69.45 11.1 51.09C10.5 28.01 10.52 29.99 10.96 29.99C11.68 29.99 13.46 28.97 14.36 28.03C17.98 24.31 19.04 15.81 16.78 8.49C15.24 3.39 11.96 -0.04 8.74 0.02C8.28 0.02 7.68 0.1 7.4 0.18Z" fill="#2A612D" fill-opacity="1.000000" fill-rule="nonzero"/>
	<path id="path" d="M3.36 3.55C2.04 5.47 0.84 8.89 0.28 12.35C-0.06 14.51 -0.1 19.15 0.2 21.11C0.64 23.99 1.76 26.59 3.2 28.15C3.98 28.99 5.74 29.99 6.46 29.99C6.9 29.99 6.9 29.21 6.32 51.79L5.84 69.69L6.28 70.49C7.48 72.71 9.82 72.73 11.2 70.49C11.56 69.91 11.56 69.45 11.1 51.09C10.5 28.01 10.52 29.99 10.96 29.99C11.68 29.99 13.46 28.97 14.36 28.03C17.98 24.31 19.04 15.81 16.78 8.49C15.24 3.39 11.96 -0.04 8.74 0.02C8.28 0.02 7.68 0.1 7.4 0.18C6.02 0.6 4.56 1.81 3.36 3.55Z" stroke="#000000" stroke-opacity="0" stroke-width="0.133333"/>
	<path id="path" d="M73.32 1.23C73 4.81 72.36 19.79 72.46 21.69C72.64 25.33 73.7 27.85 75.46 28.87C76.01 29.21 76.85 29.45 77.78 29.57C78.58 29.67 79.26 29.79 79.29 29.83C79.33 29.87 79.14 38.53 78.87 49.09C78.6 59.65 78.41 68.71 78.46 69.21C78.58 70.73 80 72.39 81.2 72.39C81.98 72.39 82.91 71.69 83.52 70.67L84.06 69.73L83.64 51.01C83.37 40.71 83.18 31.71 83.16 30.99L83.12 29.69L84.14 29.57C85.75 29.37 86.61 28.99 87.61 28.05C89.23 26.53 90 23.99 90 20.03C90 16.71 89.02 0.33 88.81 0.14C88.71 0.04 88.33 0 87.98 0.04L87.29 0.1L87.23 8.53L87.19 16.99L84.91 16.99L82.66 16.99L82.5 8.63C82.41 4.05 82.29 0.22 82.21 0.14C82.12 0.04 81.62 0 81.08 0.04L80.1 0.1L79.91 8.53L79.74 16.99L77.48 16.99L75.2 16.99L75.2 8.49L75.2 0L74.32 0L73.43 0L73.32 1.23Z" fill="#2A612D" fill-opacity="1.000000" fill-rule="nonzero"/>
	<path id="path" d="M72.46 21.69C72.64 25.33 73.7 27.85 75.46 28.87C76.01 29.21 76.85 29.45 77.78 29.57C78.58 29.67 79.26 29.79 79.29 29.83C79.33 29.87 79.14 38.53 78.87 49.09C78.6 59.65 78.41 68.71 78.46 69.21C78.58 70.73 80 72.39 81.2 72.39C81.98 72.39 82.91 71.69 83.52 70.67L84.06 69.73L83.64 51.01C83.37 40.71 83.18 31.71 83.16 30.99L83.12 29.69L84.14 29.57C85.75 29.37 86.61 28.99 87.61 28.05C89.23 26.53 90 23.99 90 20.03C90 16.71 89.02 0.33 88.81 0.14C88.71 0.04 88.33 0 87.98 0.04L87.29 0.1L87.23 8.53L87.19 16.99L84.91 16.99L82.66 16.99L82.5 8.63C82.41 4.05 82.29 0.22 82.21 0.14C82.12 0.04 81.62 0 81.08 0.04L80.1 0.1L79.91 8.53L79.74 16.99L77.48 16.99L75.2 16.99L75.2 8.49L75.2 0L74.32 0L73.43 0L73.32 1.23C73 4.81 72.36 19.79 72.46 21.69Z" stroke="#000000" stroke-opacity="0" stroke-width="0.133333"/>
	<path id="path" d="M42.36 8.63C38.66 8.85 35.44 9.75 31.94 11.53C18.16 18.55 12.98 35.61 20.52 49.11C25.02 57.13 33.38 62.43 42.36 62.97C50.66 63.45 57.9 60.73 63.6 55.01C67.54 51.07 69.92 46.69 71.12 41.19C71.64 38.81 71.66 33.01 71.14 30.59C69.94 24.99 67.56 20.55 63.6 16.57C59.54 12.45 54.54 9.85 49 8.93C46.62 8.53 45.08 8.45 42.36 8.63ZM47.2 17.59C49.64 17.99 52.64 19.19 54.8 20.65C56.12 21.55 58.52 23.91 59.52 25.33C60.66 26.89 61.9 29.55 62.44 31.53C63 33.63 63.08 38.65 62.56 40.53C61.18 45.49 58.48 49.37 54.58 51.97C49.9 55.11 44.02 55.99 38.6 54.35C35.36 53.37 31.5 50.79 29.54 48.29C26.82 44.81 25.52 41.39 25.28 37.09C24.96 31.61 27.06 26.47 31.18 22.53C35.36 18.55 41.4 16.69 47.2 17.59Z" fill="#2A612D" fill-opacity="1.000000" fill-rule="nonzero"/>
	<path id="path" d="M31.94 11.53C18.16 18.55 12.98 35.61 20.52 49.11C25.02 57.13 33.38 62.43 42.36 62.97C50.66 63.45 57.9 60.73 63.6 55.01C67.54 51.07 69.92 46.69 71.12 41.19C71.64 38.81 71.66 33.01 71.14 30.59C69.94 24.99 67.56 20.55 63.6 16.57C59.54 12.45 54.54 9.85 49 8.93C46.62 8.53 45.08 8.45 42.36 8.63C38.66 8.85 35.44 9.75 31.94 11.53ZM54.8 20.65C56.12 21.55 58.52 23.91 59.52 25.33C60.66 26.89 61.9 29.55 62.44 31.53C63 33.63 63.08 38.65 62.56 40.53C61.18 45.49 58.48 49.37 54.58 51.97C49.9 55.11 44.02 55.99 38.6 54.35C35.36 53.37 31.5 50.79 29.54 48.29C26.82 44.81 25.52 41.39 25.28 37.09C24.96 31.61 27.06 26.47 31.18 22.53C35.36 18.55 41.4 16.69 47.2 17.59C49.64 17.99 52.64 19.19 54.8 20.65Z" stroke="#000000" stroke-opacity="0" stroke-width="0.133333"/>
	<path id="path" d="M41.7 19.69C37.96 20.27 35.22 21.61 32.64 24.07C30.94 25.67 29.94 27.05 29 29.05C27.94 31.25 27.58 32.69 27.46 35.15C27.26 38.95 28.16 42.33 30.22 45.41C33.18 49.81 37.72 52.39 43.1 52.71C51.1 53.21 58.32 47.79 60.22 39.89C60.58 38.37 60.62 37.71 60.54 35.59C60.42 32.61 59.96 30.85 58.68 28.39C56.1 23.43 51.28 20.19 45.52 19.59C43.42 19.37 43.74 19.35 41.7 19.69Z" fill="#2A612D" fill-opacity="1.000000" fill-rule="nonzero"/>
	<path id="path" d="M32.64 24.07C30.94 25.67 29.94 27.05 29 29.05C27.94 31.25 27.58 32.69 27.46 35.15C27.26 38.95 28.16 42.33 30.22 45.41C33.18 49.81 37.72 52.39 43.1 52.71C51.1 53.21 58.32 47.79 60.22 39.89C60.58 38.37 60.62 37.71 60.54 35.59C60.42 32.61 59.96 30.85 58.68 28.39C56.1 23.43 51.28 20.19 45.52 19.59C43.42 19.37 43.74 19.35 41.7 19.69C37.96 20.27 35.22 21.61 32.64 24.07Z" stroke="#000000" stroke-opacity="0" stroke-width="0.133333"/>
</svg>
