<svg width="80.000000" height="79.832016" viewBox="0 0 80 79.832" fill="none" xmlns="http://www.w3.org/2000/svg" xmlns:xlink="http://www.w3.org/1999/xlink">
	<desc>
			Created with Pixso.
	</desc>
	<defs/>
	<path id="path" d="M34.79 0.28C29.43 1.08 25.75 2.28 21.09 4.7C7.84 11.61 -0.89 27.04 0.07 41.87C1.32 60.83 14.48 75.78 32.99 79.28C37.15 80.06 44.12 80 47.91 79.13C58.8 76.65 67.2 71.06 72.94 62.54C82.18 48.81 82.36 31.67 73.36 17.95C67.56 9.07 57.9 2.61 47.43 0.6C43.94 -0.05 38.04 -0.2 34.79 0.28ZM46.9 2.85C47.64 3.03 49.05 3.36 50.04 3.62L51.83 4.1L54.61 8.56C56.47 11.49 57.3 13.13 57.15 13.4C57.03 13.64 55.39 15.92 53.51 18.49L50.1 23.18L40.05 23.18L29.97 23.18L28.92 21.75C28.36 20.97 26.71 18.7 25.28 16.72L22.64 13.07L25.43 8.56L28.21 4.07L30.9 3.42C32.39 3.06 34.4 2.67 35.38 2.52C37.6 2.22 45.07 2.43 46.9 2.85ZM24.23 19.2C26.11 21.81 27.73 24.08 27.85 24.26C27.94 24.44 26.65 28.86 24.95 34.13L21.87 43.67L16.36 45.52C13.34 46.51 10.65 47.34 10.38 47.37C10.08 47.4 8.29 45.49 6.08 42.89L2.28 38.4L2.49 36.4C3.12 30.21 5.39 23.87 8.71 19L10.02 17.05L15.08 15.8C17.86 15.11 20.28 14.54 20.49 14.54C20.67 14.51 22.37 16.63 24.23 19.2ZM64.84 15.86C70.73 17.32 70.43 17.14 72.58 20.94C75.13 25.4 76.8 30.45 77.46 35.65L77.79 38.4L74.92 41.78C73.36 43.64 71.6 45.7 71.03 46.36L69.98 47.55L64.12 45.61L58.23 43.67L55.12 34.13L52.01 24.56L55.6 19.53C57.6 16.78 59.31 14.51 59.43 14.51C59.52 14.51 61.97 15.11 64.84 15.86ZM30.78 51.92L38.82 57.72L38.82 64L38.82 70.28L32.72 72.76L26.65 75.22L24.38 74.2C21.48 72.85 18.58 71.03 15.95 68.85C13.55 66.87 9.82 62.72 9.82 62.06C9.82 60.65 10.77 49.95 10.89 49.83C11.13 49.56 22.2 45.97 22.49 46.03C22.64 46.06 26.38 48.72 30.78 51.92ZM63.49 47.82C66.45 48.78 68.97 49.65 69.09 49.74C69.26 49.92 70.22 60.14 70.22 61.94C70.22 62.87 66.75 66.75 63.88 69.06C61.19 71.21 57.93 73.24 55.18 74.47L53.42 75.22L47.32 72.76L41.21 70.28L41.21 64L41.21 57.72L49.38 51.83C53.83 48.57 57.66 45.97 57.81 46.03C57.99 46.09 60.53 46.9 63.49 47.82Z" fill="#2A612D" fill-opacity="1.000000" fill-rule="nonzero"/>
	<path id="path" d="M21.09 4.7C7.84 11.61 -0.89 27.04 0.07 41.87C1.32 60.83 14.48 75.78 32.99 79.28C37.15 80.06 44.12 80 47.91 79.13C58.8 76.65 67.2 71.06 72.94 62.54C82.18 48.81 82.36 31.67 73.36 17.95C67.56 9.07 57.9 2.61 47.43 0.6C43.94 -0.05 38.04 -0.2 34.79 0.28C29.43 1.08 25.75 2.28 21.09 4.7ZM50.04 3.62L51.83 4.1L54.61 8.56C56.47 11.49 57.3 13.13 57.15 13.4C57.03 13.64 55.39 15.92 53.51 18.49L50.1 23.18L40.05 23.18L29.97 23.18L28.92 21.75C28.36 20.97 26.71 18.7 25.28 16.72L22.64 13.07L25.43 8.56L28.21 4.07L30.9 3.42C32.39 3.06 34.4 2.67 35.38 2.52C37.6 2.22 45.07 2.43 46.9 2.85C47.64 3.03 49.05 3.36 50.04 3.62ZM27.85 24.26C27.94 24.44 26.65 28.86 24.95 34.13L21.87 43.67L16.36 45.52C13.34 46.51 10.65 47.34 10.38 47.37C10.08 47.4 8.29 45.49 6.08 42.89L2.28 38.4L2.49 36.4C3.12 30.21 5.39 23.87 8.71 19L10.02 17.05L15.08 15.8C17.86 15.11 20.28 14.54 20.49 14.54C20.67 14.51 22.37 16.63 24.23 19.2C26.11 21.81 27.73 24.08 27.85 24.26ZM72.58 20.94C75.13 25.4 76.8 30.45 77.46 35.65L77.79 38.4L74.92 41.78C73.36 43.64 71.6 45.7 71.03 46.36L69.98 47.55L64.12 45.61L58.23 43.67L55.12 34.13L52.01 24.56L55.6 19.53C57.6 16.78 59.31 14.51 59.43 14.51C59.52 14.51 61.97 15.11 64.84 15.86C70.73 17.32 70.43 17.14 72.58 20.94ZM38.82 57.72L38.82 64L38.82 70.28L32.72 72.76L26.65 75.22L24.38 74.2C21.48 72.85 18.58 71.03 15.95 68.85C13.55 66.87 9.82 62.72 9.82 62.06C9.82 60.65 10.77 49.95 10.89 49.83C11.13 49.56 22.2 45.97 22.49 46.03C22.64 46.06 26.38 48.72 30.78 51.92L38.82 57.72ZM69.09 49.74C69.26 49.92 70.22 60.14 70.22 61.94C70.22 62.87 66.75 66.75 63.88 69.06C61.19 71.21 57.93 73.24 55.18 74.47L53.42 75.22L47.32 72.76L41.21 70.28L41.21 64L41.21 57.72L49.38 51.83C53.83 48.57 57.66 45.97 57.81 46.03C57.99 46.09 60.53 46.9 63.49 47.82C66.45 48.78 68.97 49.65 69.09 49.74Z" stroke="#000000" stroke-opacity="0" stroke-width="0.133333"/>
</svg>
