<svg width="19.999512" height="18.000488" viewBox="0 0 19.9995 18.0005" fill="none" xmlns="http://www.w3.org/2000/svg" xmlns:xlink="http://www.w3.org/1999/xlink">
	<desc>
			Created with Pixso.
	</desc>
	<defs/>
	<path id="Union" d="M16.49 7.98L15.51 8.34L15.51 9.38L15.51 15C15.51 15.82 14.84 16.5 14.01 16.5L13 16.5L13 16.5L13 11C13 9.89 12.1 9 11 9L9 9C7.89 9 7 9.89 7 11L7 16.5L7 16.5L5.99 16.5C5.16 16.5 4.49 15.82 4.49 15L4.49 9.38L4.49 8.34L3.51 7.98L2.04 7.43L10 1.61L17.95 7.43L16.49 7.98ZM19.34 8.52L17.01 9.38L17.01 15C17.01 16.65 15.67 18 14.01 18L5.99 18C4.33 18 2.99 16.65 2.99 15L2.99 9.38L0.65 8.52C-0.1 8.24 -0.24 7.24 0.4 6.77L9.41 0.19C9.76 -0.07 10.24 -0.07 10.59 0.19L19.58 6.77C20.23 7.24 20.09 8.24 19.34 8.52ZM9 10.5L11 10.5C11.27 10.5 11.5 10.72 11.5 11L11.5 16.5L8.5 16.5L8.5 11C8.5 10.72 8.72 10.5 9 10.5Z" fill="#1B181A" fill-opacity="1.000000" fill-rule="evenodd"/>
</svg>
