<svg width="80.000000" height="85.875122" viewBox="0 0 80 85.8751" fill="none" xmlns="http://www.w3.org/2000/svg" xmlns:xlink="http://www.w3.org/1999/xlink">
	<desc>
			Created with Pixso.
	</desc>
	<defs/>
	<path id="path" d="M36.48 0.22C21.27 1.6 8.21 11.38 2.72 25.46C0.72 30.55 0 34.49 0 40.19C0 43.6 0.08 44.22 0.54 44.98C1.7 46.9 0.7 46.79 19.18 46.95L35.81 47.09L35.89 62.28L35.94 77.49L20.67 77.49L5.4 77.49L5.4 81.68L5.4 85.87L40 85.87L74.59 85.87L74.59 81.68L74.59 77.49L59.32 77.49L44.05 77.49L44.1 62.28L44.18 47.09L60.81 46.95C79.29 46.79 78.29 46.9 79.45 44.98C79.91 44.22 80 43.6 80 40.19C80 32.82 78.32 26.44 74.83 20.36C68.13 8.65 56.75 1.41 43.1 0.19C40.08 -0.08 39.72 -0.08 36.48 0.22ZM42.32 11.82C44.48 16.06 46.29 20.92 47.45 25.52C48.4 29.22 49.45 35.68 49.45 37.68L49.45 38.84L40 38.84L30.54 38.84L30.54 37.68C30.54 35.65 31.62 29.14 32.56 25.46C33.91 20.19 35.78 15.44 38.59 9.98C39.89 7.46 40.21 7.63 42.32 11.82ZM28.21 12.41C25.18 19.46 23.18 27.46 22.4 35.41L22.08 38.84L15.08 38.84L8.08 38.84L8.27 37.41C9.27 28.95 12.35 22.6 18.13 17.09C20.62 14.71 24.1 12.36 27 11.09C28.13 10.6 29.08 10.19 29.1 10.19C29.13 10.19 28.72 11.19 28.21 12.41ZM55.56 12.38C64.7 17.6 70.59 26.68 71.72 37.41L71.86 38.84L64.89 38.84L57.91 38.84L57.59 35.41C56.81 27.44 54.45 18.28 51.51 11.76L50.81 10.19L52.24 10.76C53 11.06 54.51 11.79 55.56 12.38Z" fill="#1C85C5" fill-opacity="1.000000" fill-rule="nonzero"/>
	<path id="path" d="M2.72 25.46C0.72 30.55 0 34.49 0 40.19C0 43.6 0.08 44.22 0.54 44.98C1.7 46.9 0.7 46.79 19.18 46.95L35.81 47.09L35.89 62.28L35.94 77.49L20.67 77.49L5.4 77.49L5.4 81.68L5.4 85.87L40 85.87L74.59 85.87L74.59 81.68L74.59 77.49L59.32 77.49L44.05 77.49L44.1 62.28L44.18 47.09L60.81 46.95C79.29 46.79 78.29 46.9 79.45 44.98C79.91 44.22 80 43.6 80 40.19C80 32.82 78.32 26.44 74.83 20.36C68.13 8.65 56.75 1.41 43.1 0.19C40.08 -0.08 39.72 -0.08 36.48 0.22C21.27 1.6 8.21 11.38 2.72 25.46ZM47.45 25.52C48.4 29.22 49.45 35.68 49.45 37.68L49.45 38.84L40 38.84L30.54 38.84L30.54 37.68C30.54 35.65 31.62 29.14 32.56 25.46C33.91 20.19 35.78 15.44 38.59 9.98C39.89 7.46 40.21 7.63 42.32 11.82C44.48 16.06 46.29 20.92 47.45 25.52ZM22.4 35.41L22.08 38.84L15.08 38.84L8.08 38.84L8.27 37.41C9.27 28.95 12.35 22.6 18.13 17.09C20.62 14.71 24.1 12.36 27 11.09C28.13 10.6 29.08 10.19 29.1 10.19C29.13 10.19 28.72 11.19 28.21 12.41C25.18 19.46 23.18 27.46 22.4 35.41ZM71.72 37.41L71.86 38.84L64.89 38.84L57.91 38.84L57.59 35.41C56.81 27.44 54.45 18.28 51.51 11.76L50.81 10.19L52.24 10.76C53 11.06 54.51 11.79 55.56 12.38C64.7 17.6 70.59 26.68 71.72 37.41Z" stroke="#000000" stroke-opacity="0" stroke-width="0.133333"/>
</svg>
