<svg width="24.000000" height="24.000000" viewBox="0 0 24 24" fill="none" xmlns="http://www.w3.org/2000/svg" xmlns:xlink="http://www.w3.org/1999/xlink">
	<desc>
			Created with Pixso.
	</desc>
	<defs/>
	<path id="Union" d="M22.82 16.94C22.52 16.41 20.92 14.7 20.57 14.37C20.1 13.92 19.17 13.27 19.48 12.5C19.58 12.26 19.92 11.76 20.51 11C20.83 10.6 21.08 10.27 21.26 10.03C22.58 8.27 23.03 6.94 22.92 6.66C22.81 6.37 22.45 6.33 21.92 6.33L18.52 6.35C18.07 6.35 17.9 6.52 17.8 6.78C17.44 7.7 17.03 8.56 16.57 9.35C16.29 9.83 16.03 10.24 15.79 10.58C15.56 10.93 15.36 11.19 15.2 11.35C14.66 11.9 14.01 12.1 13.88 11.1C13.86 10.92 13.84 10.76 13.84 10.63C13.84 10.51 13.84 10.32 13.85 10.08C13.85 9.85 13.86 9.69 13.86 9.6C13.86 9.31 13.86 9 13.87 8.66C13.89 8.32 13.9 8.05 13.9 7.85C13.91 7.65 13.91 7.44 13.91 7.22C13.91 7 13.9 6.83 13.87 6.7C13.85 6.58 13.81 6.45 13.75 6.33C13.7 6.22 13.62 6.12 13.52 6.06C13.42 6 13.29 5.94 13.14 5.91C12.73 5.81 12.21 5.76 11.59 5.76C10.17 5.74 9.25 5.83 8.85 6.03C8.69 6.12 8.54 6.23 8.41 6.37C8.28 6.54 8.26 6.63 8.36 6.65C9.1 6.76 9.42 7.13 9.56 7.81C9.78 8.85 9.72 9.96 9.55 11C9.46 11.59 9.17 12.21 8.51 11.75C8.35 11.64 8.19 11.49 8.03 11.3C7.87 11.12 7.68 10.86 7.47 10.52C6.77 9.37 6.15 8.13 5.65 6.88C5.53 6.55 5.18 6.31 4.87 6.31L1.73 6.33C1.41 6.33 1.19 6.4 1.08 6.55L1.03 6.62C1.01 6.65 1 6.71 1 6.8C1 6.88 1.02 6.99 1.07 7.11C1.53 8.18 2.02 9.22 2.56 10.22C3.1 11.22 3.57 12.03 3.97 12.64C4.36 13.25 4.77 13.83 5.18 14.37C5.59 14.91 5.87 15.26 6 15.41C6.13 15.56 6.24 15.68 6.32 15.75L6.6 16.03C6.79 16.21 7.06 16.43 7.41 16.69C7.77 16.94 8.16 17.19 8.59 17.44C9.02 17.69 9.52 17.89 10.1 18.05C10.67 18.21 11.23 18.27 11.77 18.24L13.09 18.24C13.36 18.21 13.56 18.13 13.7 17.99L13.74 17.93C13.77 17.88 13.8 17.81 13.83 17.72C13.85 17.62 13.87 17.52 13.87 17.4C13.86 17.07 13.89 16.78 13.94 16.51C14 16.25 14.06 16.05 14.14 15.92C14.41 15.42 14.8 15.18 15.32 15.55C15.57 15.73 15.8 15.95 16.02 16.22C16.24 16.48 16.5 16.78 16.8 17.1C17.25 17.59 17.89 18.23 18.6 18.23C19.28 18.23 20.91 18.26 22.01 18.24C22.59 18.24 22.91 18.01 22.97 17.78C23.04 17.51 22.96 17.18 22.82 16.94Z" fill="#E6E5E5" fill-opacity="1.000000" fill-rule="nonzero"/>
</svg>
